<?xml version="1.0" encoding="utf-8"?>
<!-- Generator: Adobe Illustrator 25.2.1, SVG Export Plug-In . SVG Version: 6.00 Build 0)  -->
<svg version="1.1" id="Layer_1" xmlns="http://www.w3.org/2000/svg" xmlns:xlink="http://www.w3.org/1999/xlink" x="0px" y="0px"
	 viewBox="0 0 510.5 299.1" style="enable-background:new 0 0 510.5 299.1;" xml:space="preserve">
<style type="text/css">
	.st0{fill-rule:evenodd;clip-rule:evenodd;fill:#261B62;}
	.st1{fill-rule:evenodd;clip-rule:evenodd;fill:#FFFFFF;}
	.st2{fill-rule:evenodd;clip-rule:evenodd;fill:#EF7D00;}
</style>
<g>
	<path class="st0" d="M0,80C9.4,92,19.4,99.7,30.4,99.6c15.1-0.1,15.4-9.2,32-10.1C41.3,69.9,45.3,20.6,68.1,0
		c-2.2,51.7,13.3,66.2,43.1,63.5c-17.5-10.1-22.8-31-20.2-56.9c11.3,14.8,24.2,23.1,33.8,22.8c17-0.5,41.5-28.1,82.3-27.6
		c43.1,0.5,77.3,24.6,104,66.5c26.8-0.6,51,6,69.2,28.6l56.7,25.1l-6.9,4.3c20.3,12.2,40.5,26.2,60.8,40.9l15.1,6.9
		c-7.9,15.8-5.1,25,4.7,30.5l-12.9,33.7c-14.7-20.1-30-34-46.6-34c-17.3,0-9.7,18.7,29.7,19.4l-19.6,18.7l-37.6-2.4
		c1.4-3.3,0.5-6.7-0.3-10.1c-2.7-7.6-13.6-15.8-32.7-24.7c-25.6,13.3-49.9,10.7-73.1-5.3c-50.4,23.6-55.9,39.3-59.6,98.9l-5.3,0.2
		c-17.3-54.9-28.3-95.1-106.2-111C69,172.2,9.3,158.9,0,80L0,80z"/>
	<path class="st1" d="M316.5,77.1c4.5,2.2,12.1,5.7,14.6,12.8c-19.4-5.7-42.9-10.2-66.9-10.8c-61.3-1.6-135.7,16.3-213.8,69.6
		c23.4,12.3,45.3,17.2,67.8,22.7c46.1-30.6,87.2-40.3,139.5-42.3c-2.7-5.6-8.4-11.7-11-17.4c22.5,2.4,50.1,15.4,71,25.7
		c0.2,0.3,1.2,0.8,1.5,1c1.4,25.1,11.1,42.7,38.1,47.6c10.1-1.1,22.5-2.9,31.9-10.2c6,2.4,27.5,13.9,31,19.4
		c-9.9-3.7-17-9.2-28.8-10.5c-7.6,4.9-22.8,9.5-36.9,9.5c-34.5-4.6-41.9-22.5-52.8-50.1c-9.5-2.5-22.9-3.8-37.1-3.5
		c-33.9,0.9-73,14.3-99.2,41.7c17.2,7.2,33.2,13,47.4,23.7c4.5-5.3,29.7-29,67.7-28.4c-27.9,9.4-38.6,17.9-53.2,42.1
		c6.4,2.4,15.6,23.9,23,41.3c11.8-49.1,42.8-62.4,67.5-72.3c11.1,6.4,22.6,15.2,37.3,14.3c13.5-0.8,24.7-3.8,34.1-8.6
		c17.7,8.8,37.2,16.7,44.3,37.1c9.4,0.5,17.9,2.2,23.4,3c0,0,6.8-6.8,6.6-7.9c-19.3-1.8-30.6-9.6-30-20.1c0.4-7.3,7.3-11.9,16.4-11
		c10.7,1.1,26.9,9.5,42.8,25.3c0.8,0.1,1.7,0.2,2.5,0.2c1.8-4.4,4.5-9.5,3.7-15c-13.7-10.7-5.4-24.4-6-28.2
		c-27.7-15.5-53.4-38.2-81.2-51.2c2-1.9,4.1-3.5,5.2-4.9c-12.4-6.5-23.3-10.8-44.7-18.3C365.5,86.9,334.4,75.8,316.5,77.1
		L316.5,77.1z M364.1,102c-7.2-9.3-11.5-13.3-22.2-16.6c2.9,2.7,5.2,4.5,6.2,7.1c-5.3-0.8-7.3-0.4-10.5-0.3
		C349.5,96,354.4,96.9,364.1,102L364.1,102z M454.6,165.9c-14.7-15.2-77.5-50.5-85-50.3c10.8,9.6,25,21.2,27.3,24.6
		c2.9-1,5.2-2.8,6.1-3.7C412.2,141.3,437.2,157.5,454.6,165.9L454.6,165.9z M470.5,178c0.7,9.7,10.2,14.3,16,18.4
		c-2.5-2.6-8.1-10.6-7.7-13.2c0.3-2.1,2.9-2.9,4.7-5.2C479.1,177.2,474.5,176.5,470.5,178L470.5,178z"/>
	<path class="st2" d="M94.6,23.9c6.4,18,11,34.3,31.4,34.9c14.2,0.4,48.1-15.5,73.7-16.1c10-0.3,27,7.3,38,27.2
		c23.9-2.2,47,2.8,64.9,3.3c-18.8-35.3-60.8-62.5-94-61.9c-51.5,1-61,27.6-86.6,25.2C111.6,35.6,102.4,30.5,94.6,23.9L94.6,23.9z"/>
	<path class="st2" d="M59.2,23.4c-3.4,11-4.9,22.5-3.8,31.6c3.4,28.5,27.5,46.5,52.8,47.3c35-13.4,68.8-26.5,106.4-30
		c-2.2-9.4-19.1-15.1-32.1-15.4c-21.3-0.4-58.3,16.5-82.8,14.8C75.3,70.2,63.7,61.8,59.2,23.4L59.2,23.4z"/>
	<path class="st2" d="M12.2,102.3c7.2,19,17.6,25.4,35.2,25.3c22.6-0.2,35.6-8.7,46.3-16.2C86,107.8,73.1,97,62,98.1
		C42.4,100.1,40.9,113.9,12.2,102.3L12.2,102.3z"/>
	<path class="st2" d="M402.3,130.9c-0.9-0.5-1.8-1-2.7-1.5c0.1,0.2,0.1,0.4,0.1,0.6c-0.2,1.8-2.8,3.9-4,3.4c-1.4-0.5-1.3-5,0.6-5.9
		c-1-0.6-2-1.1-3-1.6c-3,2.7-2,8.3,1.2,9.7C397.8,136.9,401.8,134.5,402.3,130.9L402.3,130.9z"/>
</g>
</svg>
